<?xml version="1.0" encoding="UTF-8" standalone="no"?>
<!-- Created with Inkscape (http://www.inkscape.org/) -->

<svg
   width="174.11534"
   height="35.051418"
   viewBox="0 0 46.068016 9.274021"
   version="1.1"
   id="svg5"
   inkscape:version="1.2 (dc2aedaf03, 2022-05-15)"
   sodipodi:docname="company_logo3.svg"
   inkscape:export-filename="company_logo3.png"
   inkscape:export-xdpi="96"
   inkscape:export-ydpi="96"
   xmlns:inkscape="http://www.inkscape.org/namespaces/inkscape"
   xmlns:sodipodi="http://sodipodi.sourceforge.net/DTD/sodipodi-0.dtd"
   xmlns="http://www.w3.org/2000/svg"
   xmlns:svg="http://www.w3.org/2000/svg">
  <sodipodi:namedview
     id="namedview7"
     pagecolor="#ffffff"
     bordercolor="#999999"
     borderopacity="1"
     inkscape:showpageshadow="0"
     inkscape:pageopacity="0"
     inkscape:pagecheckerboard="0"
     inkscape:deskcolor="#d1d1d1"
     inkscape:document-units="mm"
     showgrid="false"
     inkscape:zoom="3.0334024"
     inkscape:cx="59.998634"
     inkscape:cy="92.470422"
     inkscape:window-width="1500"
     inkscape:window-height="930"
     inkscape:window-x="-6"
     inkscape:window-y="-6"
     inkscape:window-maximized="1"
     inkscape:current-layer="text73">
    <inkscape:grid
       type="xygrid"
       id="grid176" />
  </sodipodi:namedview>
  <defs
     id="defs2" />
  <g
     inkscape:label="Layer 1"
     inkscape:groupmode="layer"
     id="layer1"
     transform="translate(-3.3222219,-21.821324)">
    <g
       id="g536"
       inkscape:label="font"
       transform="translate(0.35100599,0.22915052)">
      <g
         aria-label="FAS"
         id="text73"
         style="font-size:14.7192px;font-family:'Grenze Gotisch';-inkscape-font-specification:'Grenze Gotisch, Normal';stroke-width:0.486951"
         inkscape:label="FAS">
        <path
           d="m 6.5038238,21.842399 h 2.9879976 l -0.1913496,2.57586 H 8.505635 L 8.3437238,22.799147 6.4596662,22.622517 Z m -1.2511321,8.007245 1.2658513,0.220788 -0.2796648,0.54461 q -0.147192,0.01472 -0.4562952,0.05888 -0.2943841,0.04416 -0.6034873,0.0736 -0.3091032,0.04416 -0.5446104,0.0736 -0.220788,0.02944 -0.2502264,0.02944 -0.044158,0 -0.1619112,-0.103035 Q 4.1045941,30.644481 3.9868405,30.526727 3.8838061,30.408974 3.8838061,30.364816 V 22.725551 L 2.9712157,22.504763 v -0.574049 q 0.1766304,-0.02944 0.4562952,-0.05888 0.2796648,-0.04416 0.5740488,-0.0736 0.294384,-0.04416 0.515172,-0.05888 0.220788,-0.02944 0.2649456,-0.02944 0.044158,0 0.1619112,0.103035 0.1177536,0.103034 0.2060688,0.235507 0.1030344,0.117753 0.1030344,0.161911 z M 6.1358438,26.081529 8.4026006,25.963775 8.284847,27.052996 6.1358438,26.861646 Z m 0.3238224,-4.23913 h 0.36798 v 7.389038 q 0,0.08832 -0.073596,0.323823 -0.073596,0.220788 -0.2355072,0.515172 H 6.0622478 V 23.10825 q 0,-0.161911 0.1177536,-0.515172 0.1324728,-0.353261 0.2796648,-0.750679 z"
           id="path638"
           style="fill:#162959;fill-opacity:1" />
        <path
           d="m 11.03735,24.521293 q 0.161911,-0.309103 0.323823,-0.54461 0.161911,-0.250226 0.338541,-0.485734 0.19135,-0.250226 0.426857,-0.559329 h 0.397418 q -0.04416,0.294384 -0.0736,0.765398 -0.02944,0.456295 -0.04416,1.221694 -0.01472,0.765398 -0.01472,1.972373 0,1.192255 0,2.958559 l 1.265851,0.220788 -0.279665,0.54461 q -0.147192,0.01472 -0.441576,0.05888 -0.294384,0.04416 -0.603487,0.0736 -0.309103,0.04416 -0.544611,0.0736 -0.220788,0.02944 -0.264945,0.02944 -0.04416,0 -0.161911,-0.103035 -0.117754,-0.103034 -0.235508,-0.220788 -0.103034,-0.117753 -0.103034,-0.161911 0.02944,-0.574049 0.0736,-1.10394 0.05888,-0.544611 0.05888,-1.354167 0,-0.618206 -0.04416,-1.206974 -0.04416,-0.603487 -0.0736,-1.148098 -0.02944,-0.559329 0,-1.030344 z m 2.237319,1.884058 2.826086,-0.08831 v 0.780117 l -2.826086,-0.08831 z m 0.691802,-3.414854 v 6.24094 q 0,0.08832 -0.0736,0.323823 -0.0736,0.220788 -0.235507,0.515172 h -0.456295 v -7.079935 z m -3.547327,-0.309104 0.103034,-1.08922 q 0.809556,0.05888 1.736866,0.161911 0.942029,0.08832 1.825181,0.206069 0.897871,0.103034 1.574954,0.206068 0.677083,0.103035 0.971467,0.19135 0.02944,0.01472 0.103035,0.08832 0.08831,0.05888 0.161911,0.147192 0.08831,0.0736 0.147192,0.161911 0.05888,0.0736 0.05888,0.103035 v 6.976901 l 0.91259,0.220788 v 0.574049 q -0.17663,0.02944 -0.456295,0.0736 -0.279665,0.02944 -0.574049,0.05888 -0.294384,0.04416 -0.515172,0.05888 -0.220788,0.02944 -0.264946,0.02944 -0.04416,0 -0.161911,-0.117754 -0.117753,-0.103034 -0.220788,-0.220788 -0.08831,-0.117754 -0.08831,-0.161911 v -6.829709 l -3.282382,-0.382699 -0.485733,0.02944 -0.02944,-0.08832 z"
           id="path640"
           style="fill:#162959;fill-opacity:1" />
        <path
           d="m 19.177066,30.703358 0.103035,-2.693614 h 0.824275 l 0.235507,1.560235 q 0.294384,0.05888 0.647645,0.132473 0.36798,0.0736 0.721241,0.147192 0.36798,0.05888 0.647644,0.103034 0.279665,0.02944 0.397419,0.02944 0.0736,0 0.279665,-0.117754 0.220788,-0.117754 0.471014,-0.279665 0.250226,-0.17663 0.441576,-0.353261 0.206069,-0.17663 0.220788,-0.294384 0.02944,-0.161911 0.04416,-0.36798 0.01472,-0.220788 0.01472,-0.426856 0,-0.220788 -0.02944,-0.3827 -0.01472,-0.161911 -0.05888,-0.206068 -0.117754,-0.161912 -0.485734,-0.412138 -0.353261,-0.250226 -0.824275,-0.54461 -0.456295,-0.309104 -0.92731,-0.618207 -0.456295,-0.309103 -0.809556,-0.588768 -0.338541,-0.279665 -0.456295,-0.485733 -0.02944,-0.0736 -0.0736,-0.279665 -0.02944,-0.220788 -0.04416,-0.500453 -0.01472,-0.294384 -0.02944,-0.55933 -0.264946,0.206069 -0.412138,0.36798 -0.132472,0.147192 -0.191349,0.294384 -0.04416,0.147192 -0.04416,0.353261 0,0.235507 0.02944,0.412138 0.04416,0.161911 0.103034,0.309103 0.147192,0.279665 0.456295,0.500453 0.309103,0.220788 0.824275,0.588768 0.338542,0.235507 0.691803,0.485733 0.353261,0.235508 0.662364,0.471015 0.323822,0.220788 0.54461,0.412137 0.220788,0.176631 0.279665,0.309104 0.0736,0.147192 0.05888,0.338541 0,0.176631 -0.02944,0.294384 -0.05888,0.132473 -0.309103,0.309103 -0.235507,0.161912 -0.441576,0.264946 0.01472,-0.17663 0.01472,-0.353261 0.01472,-0.17663 0,-0.323822 0,-0.147192 -0.05888,-0.220788 -0.117754,-0.161911 -0.485734,-0.426857 -0.353261,-0.264946 -0.824275,-0.574049 -0.471015,-0.309103 -0.942029,-0.632925 -0.456295,-0.323823 -0.794837,-0.618207 -0.323822,-0.309103 -0.382699,-0.529891 -0.04416,-0.161911 -0.0736,-0.36798 -0.02944,-0.220788 -0.02944,-0.456295 0,-0.235507 0.01472,-0.441576 0.02944,-0.220788 0.0736,-0.36798 0.132473,-0.250227 0.426857,-0.544611 0.294384,-0.309103 0.662364,-0.603487 0.382699,-0.309103 0.765398,-0.54461 0.397418,-0.250227 0.73596,-0.397419 0.353261,-0.147192 0.574049,-0.147192 0.08832,0 0.309103,0.01472 0.235507,0 0.54461,0.02944 0.323823,0.01472 0.662364,0.04416 0.353261,0.02944 0.677084,0.0736 0.323822,0.04416 0.574048,0.08832 l -0.117753,2.531702 H 24.21102 L 23.990232,23.00523 q -0.220788,-0.103035 -0.529892,-0.176631 -0.294384,-0.08832 -0.588768,-0.132472 -0.294384,-0.04416 -0.500452,-0.04416 -0.117754,0 -0.206069,0.02944 -0.08832,0.01472 -0.147192,0.04416 -0.04416,0.02944 -0.0736,0.08832 -0.05888,0.103035 -0.08831,0.323823 -0.01472,0.220788 -0.01472,0.471014 0.01472,0.235507 0.04416,0.441576 0.02944,0.19135 0.08832,0.250226 0.176631,0.19135 0.485734,0.412138 0.323822,0.220788 0.706521,0.456295 0.397419,0.235507 0.794837,0.500453 0.412138,0.250226 0.750679,0.529891 0.353261,0.264946 0.588768,0.529891 0.04416,0.176631 0.05888,0.500453 0.02944,0.323823 0.02944,0.691803 0,0.35326 -0.02944,0.662364 -0.01472,0.309103 -0.05888,0.456295 -0.132472,0.279665 -0.456295,0.603487 -0.323822,0.309103 -0.73596,0.588768 -0.397418,0.279665 -0.765398,0.456295 -0.36798,0.161912 -0.588768,0.161912 -0.279665,0 -0.750679,-0.01472 -0.456296,-0.01472 -0.986187,-0.04416 -0.529891,-0.01472 -1.015625,-0.04416 -0.485733,-0.01472 -0.824275,-0.04416 z"
           id="path642"
           style="fill:#162959;fill-opacity:1" />
      </g>
      <g
         aria-label="tinno"
         id="text413"
         style="font-size:12.2324px;font-family:'Grenze Gotisch';-inkscape-font-specification:'Grenze Gotisch, Normal';baseline-shift:baseline;opacity:1;vector-effect:none;fill:#334d8f;fill-opacity:1;stroke-width:0.486951;stop-color:#000000;stop-opacity:1"
         inkscape:label="tinno">
        <path
           d="m 27.9016,30.86618 q -0.110092,0 -0.269113,-0.110092 -0.146789,-0.09786 -0.293578,-0.25688 -0.146788,-0.159021 -0.244648,-0.318043 -0.09786,-0.159021 -0.09786,-0.269112 V 25.92429 h -0.782873 v -0.366972 l 0.782873,-0.391437 0.685015,-0.831803 q 0.06116,0 0.171253,0.04893 0.122324,0.04893 0.256881,0.122324 v 0.770641 h 1.186542 v 0.709479 H 28.10955 v 3.388375 q 0,0.379204 0.06116,0.513761 0.06116,0.134556 0.232415,0.134556 l 1.003057,0.02446 v 0.587155 q -0.171254,0.0367 -0.403669,0.08563 -0.232416,0.0367 -0.464831,0.06116 -0.220184,0.0367 -0.40367,0.06116 -0.171253,0.02446 -0.232415,0.02446 z"
           style="baseline-shift:baseline;vector-effect:none;fill:#334d8f;fill-opacity:1;stop-color:#000000;stop-opacity:1"
           id="path419" />
        <path
           d="m 30.910779,30.86618 c -0.02447,0 -0.07747,-0.03262 -0.159022,-0.09786 -0.08155,-0.06524 -0.159021,-0.134557 -0.232415,-0.207951 -0.06524,-0.0734 -0.09786,-0.122324 -0.09786,-0.146789 V 25.948755 L 29.993349,25.814199 V 25.3616 l 0.134556,-0.02446 c 0.09786,-0.02447 0.212028,-0.04893 0.342507,-0.07339 0.130479,-0.02447 0.248726,-0.04485 0.35474,-0.06116 0.114169,-0.02447 0.183486,-0.0367 0.207951,-0.0367 0.03262,0 0.08563,0.03262 0.159021,0.09786 0.08155,0.05709 0.154944,0.122326 0.220183,0.195718 0.0734,0.07339 0.110092,0.130479 0.110092,0.171254 v 4.464826 l 0.428134,0.122324 v 0.452598 l -0.146789,0.0367 c -0.0897,0.01631 -0.199796,0.03669 -0.330275,0.06116 -0.130479,0.02447 -0.252803,0.04485 -0.366972,0.06116 -0.106014,0.02447 -0.171253,0.0367 -0.195718,0.0367 z"
           style="baseline-shift:baseline;vector-effect:none;fill:#334d8f;fill-opacity:1;stop-color:#000000;stop-opacity:1"
           id="path421"
           sodipodi:nodetypes="cscsccccscsccsccccsccc" />
        <path
           d="m 33.626379,30.86618 q -0.0367,0 -0.134556,-0.08563 -0.09786,-0.08563 -0.195719,-0.183486 -0.08563,-0.09786 -0.08563,-0.134556 V 25.997685 L 32.782343,25.814199 V 25.3616 q 0,0 0.146789,-0.02446 0.159021,-0.0367 0.366972,-0.06116 0.207951,-0.0367 0.379205,-0.06116 0.183486,-0.0367 0.220183,-0.0367 0.0367,0 0.134556,0.08563 0.09786,0.07339 0.171254,0.171253 0.08563,0.09786 0.08563,0.134557 v 0.464831 q 0.159021,-0.122324 0.354739,-0.269113 0.207951,-0.146789 0.403669,-0.281345 0.195719,-0.134557 0.330275,-0.220183 0.146789,-0.09786 0.171254,-0.09786 0.550458,0 0.941895,0.183486 0.391436,0.183486 0.599387,0.636085 0.220183,0.452599 0.220183,1.247705 v 2.80122 l 0.428134,0.183486 v 0.452598 q 0,0 -0.159021,0.0367 -0.146789,0.02446 -0.366972,0.06116 -0.207951,0.0367 -0.379204,0.06116 -0.171254,0.0367 -0.207951,0.0367 -0.0367,0 -0.146789,-0.08563 -0.09786,-0.08563 -0.195718,-0.183486 -0.08563,-0.09786 -0.08563,-0.134556 v -3.229354 q 0,-0.587155 -0.146789,-0.819571 -0.134556,-0.244648 -0.30581,-0.281345 -0.171253,-0.04893 -0.25688,-0.04893 -0.07339,0 -0.269113,0.0734 -0.183486,0.07339 -0.428134,0.183486 -0.232416,0.09786 -0.464831,0.207951 v 3.486234 l 0.415901,0.183486 v 0.452598 q 0,0 -0.159021,0.0367 -0.146789,0.02446 -0.354739,0.06116 -0.207951,0.0367 -0.391437,0.06116 -0.171254,0.0367 -0.207951,0.0367 z"
           style="baseline-shift:baseline;vector-effect:none;fill:#334d8f;fill-opacity:1;stop-color:#000000;stop-opacity:1"
           id="path423" />
        <path
           d="m 39.424548,30.86618 q -0.0367,0 -0.134556,-0.08563 -0.09786,-0.08563 -0.195719,-0.183486 -0.08563,-0.09786 -0.08563,-0.134556 V 25.997685 L 38.580512,25.814199 V 25.3616 q 0,0 0.146789,-0.02446 0.159021,-0.0367 0.366972,-0.06116 0.207951,-0.0367 0.379205,-0.06116 0.183486,-0.0367 0.220183,-0.0367 0.0367,0 0.134556,0.08563 0.09786,0.07339 0.171254,0.171253 0.08563,0.09786 0.08563,0.134557 v 0.464831 q 0.159021,-0.122324 0.354739,-0.269113 0.207951,-0.146789 0.403669,-0.281345 0.195719,-0.134557 0.330275,-0.220183 0.146789,-0.09786 0.171254,-0.09786 0.550458,0 0.941895,0.183486 0.391436,0.183486 0.599387,0.636085 0.220183,0.452599 0.220183,1.247705 v 2.80122 l 0.428134,0.183486 v 0.452598 q 0,0 -0.159021,0.0367 -0.146789,0.02446 -0.366972,0.06116 -0.207951,0.0367 -0.379204,0.06116 -0.171254,0.0367 -0.207951,0.0367 -0.0367,0 -0.146789,-0.08563 -0.09786,-0.08563 -0.195718,-0.183486 -0.08563,-0.09786 -0.08563,-0.134556 v -3.229354 q 0,-0.587155 -0.146789,-0.819571 -0.134556,-0.244648 -0.30581,-0.281345 -0.171253,-0.04893 -0.25688,-0.04893 -0.07339,0 -0.269113,0.0734 -0.183486,0.07339 -0.428134,0.183486 -0.232416,0.09786 -0.464831,0.207951 v 3.486234 l 0.415901,0.183486 v 0.452598 q 0,0 -0.159021,0.0367 -0.146789,0.02446 -0.354739,0.06116 -0.207951,0.0367 -0.391437,0.06116 -0.171254,0.0367 -0.207951,0.0367 z"
           style="baseline-shift:baseline;vector-effect:none;fill:#334d8f;fill-opacity:1;stop-color:#000000;stop-opacity:1"
           id="path425" />
        <path
           d="m 46.97195,30.86618 q -1.259937,0 -1.908254,-0.636085 -0.636085,-0.636085 -0.636085,-2.006114 0,-0.550458 0.08563,-1.051986 0.08563,-0.513761 0.207951,-0.746176 0.09786,-0.146789 0.342507,-0.35474 0.25688,-0.220183 0.550458,-0.415902 0.30581,-0.20795 0.56269,-0.342507 0.256881,-0.146789 0.366972,-0.146789 1.235473,0 1.859325,0.672782 0.636085,0.66055 0.636085,1.896022 0,0.599388 -0.08563,1.113149 -0.08563,0.513761 -0.183486,0.807338 -0.09786,0.122324 -0.342507,0.330275 -0.244648,0.195718 -0.550458,0.403669 -0.293578,0.207951 -0.550458,0.342507 -0.244648,0.134557 -0.35474,0.134557 z m 0.06116,-0.697247 q 0.04893,-0.01223 0.195719,-0.08563 0.146789,-0.07339 0.281345,-0.146789 0.146789,-0.07339 0.146789,-0.07339 0.06116,-0.281345 0.134556,-0.746176 0.07339,-0.464832 0.07339,-1.22324 0,-0.61162 -0.159022,-1.051987 -0.146788,-0.452599 -0.452598,-0.697247 -0.30581,-0.25688 -0.770642,-0.25688 -0.122324,0 -0.244648,0.02446 -0.122324,0.01223 -0.244648,0.07339 -0.159021,0.08563 -0.281345,0.623853 -0.110091,0.538225 -0.110091,1.443423 0,0.8685 0.220183,1.333331 0.220183,0.452599 0.550458,0.623853 0.330275,0.159021 0.660549,0.159021 z"
           style="baseline-shift:baseline;vector-effect:none;fill:#334d8f;fill-opacity:1;stop-color:#000000;stop-opacity:1"
           id="path427" />
      </g>
      <text
         xml:space="preserve"
         style="font-style:normal;font-variant:normal;font-weight:normal;font-stretch:normal;font-size:2.82222px;font-family:'Roboto Mono';-inkscape-font-specification:'Roboto Mono, @wght=700';font-variant-ligatures:normal;font-variant-caps:normal;font-variant-numeric:normal;font-variant-east-asian:normal;font-variation-settings:'wght' 700;letter-spacing:0.211667px;fill:#334d8f;fill-opacity:1;stroke-width:0.252838"
         x="26.241243"
         y="23.886089"
         id="text318"
         inkscape:label="ascii"><tspan
           style="font-style:normal;font-variant:normal;font-weight:normal;font-stretch:normal;font-size:2.82222px;font-family:'Roboto Mono';-inkscape-font-specification:'Roboto Mono, @wght=700';font-variant-ligatures:normal;font-variant-caps:normal;font-variant-numeric:normal;font-variant-east-asian:normal;font-variation-settings:'wght' 700;fill:#334d8f;fill-opacity:1;stroke-width:0.252838"
           x="26.241243"
           y="23.886089"
           sodipodi:role="line"
           id="tspan403">&lt;-@-------/&gt;</tspan></text>
    </g>
  </g>
</svg>
